<?xml version="1.0" standalone="no"?>
<!DOCTYPE svg PUBLIC "-//W3C//DTD SVG 20010904//EN"
 "http://www.w3.org/TR/2001/REC-SVG-20010904/DTD/svg10.dtd">
<svg version="1.0" xmlns="http://www.w3.org/2000/svg"
 width="392.000000pt" height="512.000000pt" viewBox="0 0 392.000000 512.000000"
 preserveAspectRatio="xMidYMid meet">

<g transform="translate(0.000000,512.000000) scale(0.100000,-0.100000)"
fill="#000000" stroke="none">
<path d="M1894 5101 c-42 -19 -200 -223 -1104 -1426 -452 -601 -619 -868 -703
-1123 -49 -149 -65 -232 -79 -416 -54 -727 273 -1406 867 -1802 659 -438 1501
-442 2160 -8 599 394 932 1081 877 1812 -36 478 -151 699 -838 1612 -955 1268
-998 1324 -1044 1348 -53 27 -82 27 -136 3z m412 -871 c893 -1180 1001 -1331
1130 -1574 118 -224 144 -329 151 -621 5 -194 3 -235 -16 -344 -56 -331 -203
-619 -440 -865 -231 -239 -516 -396 -845 -468 -88 -19 -130 -22 -326 -22 -251
0 -324 11 -525 78 -471 158 -863 550 -1021 1021 -69 206 -78 272 -79 545 0
268 7 325 57 470 89 256 246 491 939 1405 184 242 399 527 479 633 80 105 148
191 152 189 4 -1 159 -202 344 -447z"/>
<path d="M3021 2098 c-62 -42 -72 -65 -82 -187 -21 -262 -113 -466 -288 -642
-176 -175 -385 -269 -641 -288 -97 -7 -112 -11 -145 -36 -89 -67 -86 -201 6
-262 34 -22 47 -25 132 -24 669 7 1247 582 1258 1254 2 105 -11 141 -63 178
-48 35 -133 38 -177 7z"/>
</g>
</svg>
