<?xml version="1.0" standalone="no"?>
<!DOCTYPE svg PUBLIC "-//W3C//DTD SVG 20010904//EN"
 "http://www.w3.org/TR/2001/REC-SVG-20010904/DTD/svg10.dtd">
<svg version="1.0" xmlns="http://www.w3.org/2000/svg"
 width="512.000000pt" height="512.000000pt" viewBox="0 0 512.000000 512.000000"
 preserveAspectRatio="xMidYMid meet">

<g transform="translate(0.000000,512.000000) scale(0.100000,-0.100000)"
fill="#000000" stroke="none">
<path d="M2410 4650 c-459 -31 -890 -215 -1250 -533 l-85 -75 -44 41 c-25 22
-46 37 -48 31 -11 -33 -59 -294 -54 -294 3 0 70 21 149 48 l144 47 -49 42 -48
42 30 31 c48 50 202 173 295 234 105 70 316 175 434 215 226 79 426 112 676
112 280 0 504 -43 758 -145 820 -331 1339 -1161 1270 -2031 -18 -218 -18 -220
12 -220 24 0 26 5 38 80 19 121 17 448 -3 580 -69 460 -270 860 -595 1185
-297 297 -660 492 -1072 575 -108 21 -369 48 -433 43 -11 0 -67 -4 -125 -8z"/>
<path d="M677 3465 c-21 -20 -40 -73 -33 -90 11 -29 45 -17 61 21 8 20 15 44
15 54 0 24 -26 33 -43 15z"/>
<path d="M1720 3448 c-64 -37 -290 -253 -290 -278 0 -10 18 -30 41 -46 l41
-28 75 83 c72 78 156 151 174 151 20 0 146 -293 243 -561 l34 -96 -69 -5 c-78
-6 -99 -18 -99 -59 0 -61 -20 -59 692 -59 l648 0 16 25 c21 33 11 73 -22 85
-15 6 -222 10 -507 10 l-482 0 -169 383 c-93 210 -175 392 -183 405 -20 33
-75 29 -143 -10z m120 -27 c14 -26 12 -61 -4 -90 -13 -24 -14 -24 -20 -4 -4
11 -15 28 -26 38 -18 17 -21 16 -55 -4 -44 -26 -45 -26 -45 -3 0 22 22 44 65
66 41 21 72 20 85 -3z m-280 -194 c0 -31 -56 -85 -71 -70 -9 9 -3 22 20 52 37
46 51 51 51 18z m439 -221 c-7 -17 -15 -35 -19 -39 -7 -8 -70 143 -70 168 0 8
5 26 11 42 11 28 12 27 51 -56 35 -77 38 -88 27 -115z m144 -271 l25 -60 -35
-3 c-50 -5 -61 2 -68 42 -6 27 -2 42 15 66 12 17 26 28 30 23 5 -4 19 -35 33
-68z"/>
<path d="M599 3295 c-24 -55 -22 -90 6 -90 43 0 73 125 32 133 -13 3 -23 -9
-38 -43z"/>
<path d="M560 3165 c-13 -16 -50 -148 -50 -183 0 -27 27 -40 44 -21 8 8 23 54
35 103 17 68 19 91 10 102 -15 18 -24 18 -39 -1z"/>
<path d="M502 2918 c-35 -43 -46 -460 -17 -648 70 -465 271 -866 595 -1190
324 -324 724 -525 1185 -596 149 -22 431 -22 589 0 405 58 785 233 1089 501
l99 87 47 -41 48 -40 27 137 c15 75 29 145 32 154 4 14 -22 8 -144 -33 l-149
-51 45 -42 44 -42 -69 -64 c-275 -260 -662 -443 -1068 -505 -147 -23 -442 -23
-585 -1 -254 40 -467 111 -683 228 -566 307 -948 858 -1042 1503 -20 133 -22
389 -5 534 10 86 10 105 -1 112 -19 12 -25 11 -37 -3z"/>
<path d="M1980 2498 c0 -7 38 -278 83 -603 l83 -590 442 -3 442 -2 0 23 c0 12
25 273 55 580 30 306 55 568 55 582 l0 25 -580 0 c-457 0 -580 -3 -580 -12z"/>
<path d="M4550 2118 c-6 -24 -18 -67 -26 -97 -18 -63 -13 -84 18 -79 19 2 27
16 46 83 27 96 26 129 -5 133 -18 3 -24 -4 -33 -40z"/>
<path d="M4473 1858 c-34 -88 11 -128 48 -43 25 55 22 89 -7 93 -17 2 -25 -7
-41 -50z"/>
<path d="M4414 1714 c-18 -43 -13 -64 16 -64 24 0 56 59 47 84 -12 30 -47 19
-63 -20z"/>
</g>
</svg>
