<?xml version="1.0" standalone="no"?>
<!DOCTYPE svg PUBLIC "-//W3C//DTD SVG 20010904//EN"
 "http://www.w3.org/TR/2001/REC-SVG-20010904/DTD/svg10.dtd">
<svg version="1.0" xmlns="http://www.w3.org/2000/svg"
 width="512.000000pt" height="512.000000pt" viewBox="0 0 512.000000 512.000000"
 preserveAspectRatio="xMidYMid meet">

<g transform="translate(0.000000,512.000000) scale(0.100000,-0.100000)"
fill="#000000" stroke="none">
<path d="M764 5110 c-12 -4 -31 -21 -43 -36 l-21 -27 0 -2488 0 -2489 29 -32
29 -33 1802 0 1802 0 29 33 29 32 0 2014 0 2013 -506 511 -506 512 -1311 -1
c-722 0 -1322 -4 -1333 -9z m2496 -592 c0 -226 4 -388 10 -410 15 -53 56 -97
115 -124 50 -24 52 -24 428 -24 l377 0 0 -1865 0 -1865 -1630 0 -1630 0 0
2330 0 2330 1165 0 1165 0 0 -372z"/>
<path d="M1400 4305 l0 -115 695 0 695 0 0 115 0 115 -695 0 -695 0 0 -115z"/>
<path d="M1400 3605 l0 -115 1160 0 1160 0 0 115 0 115 -1160 0 -1160 0 0
-115z"/>
<path d="M1400 2910 l0 -120 1160 0 1160 0 0 120 0 120 -1160 0 -1160 0 0
-120z"/>
<path d="M1400 2210 l0 -120 1160 0 1160 0 0 120 0 120 -1160 0 -1160 0 0
-120z"/>
<path d="M1400 1515 l0 -115 1160 0 1160 0 0 115 0 115 -1160 0 -1160 0 0
-115z"/>
<path d="M1400 815 l0 -115 1160 0 1160 0 0 115 0 115 -1160 0 -1160 0 0 -115z"/>
</g>
</svg>
